# xmcd
#
# Track frame offsets: 
#        150
#        22156
#        43632
#        65452
#        82312
#        101538
#        127768
#        146972
#
# Disc length: 2265 seconds
#
# Revision: 1
# Processed by: cddbd v1.5.2PL0 Copyright (c) Steve Scherf et al.
# Submitted via: ExactAudioCopyFreeDBPlugin 1.0
#
DISCID=7108d708
DTITLE=Stephanie Mills - Stephanie
DYEAR=1981
DGENRE=Funk
TTITLE0=Winner
TTITLE1=Two Hearts (Featuring Teddy Pendergrass)
TTITLE2=Don't Stop Doin' What 'Cha Do
TTITLE3=Top Of My List
TTITLE4=I Believe In Love Songs
TTITLE5=Night Games
TTITLE6=My Love's Been Good To You
TTITLE7=Magic
EXTD=
EXTT0=
EXTT1=
EXTT2=
EXTT3=
EXTT4=
EXTT5=
EXTT6=
EXTT7=
PLAYORDER=
